<mxfile host="app.diagrams.net" agent="Mozilla/5.0 (Windows NT 10.0; Win64; x64) AppleWebKit/537.36 (KHTML, like Gecko) Chrome/131.0.0.0 Safari/537.36 Edg/131.0.0.0" version="25.0.3">
  <diagram id="C5RBs43oDa-KdzZeNtuy" name="Page-1">
    <mxGraphModel dx="1042" dy="1734" grid="1" gridSize="10" guides="1" tooltips="1" connect="1" arrows="1" fold="1" page="1" pageScale="1" pageWidth="827" pageHeight="1169" math="0" shadow="0">
      <root>
        <mxCell id="WIyWlLk6GJQsqaUBKTNV-0" />
        <mxCell id="WIyWlLk6GJQsqaUBKTNV-1" parent="WIyWlLk6GJQsqaUBKTNV-0" />
        <mxCell id="T3NiKNz-jwuX6jULTS1c-2" value="" style="edgeStyle=orthogonalEdgeStyle;rounded=0;orthogonalLoop=1;jettySize=auto;html=1;" edge="1" parent="WIyWlLk6GJQsqaUBKTNV-1" source="T3NiKNz-jwuX6jULTS1c-0" target="T3NiKNz-jwuX6jULTS1c-1">
          <mxGeometry relative="1" as="geometry" />
        </mxCell>
        <mxCell id="T3NiKNz-jwuX6jULTS1c-0" value="Start" style="ellipse;whiteSpace=wrap;html=1;" vertex="1" parent="WIyWlLk6GJQsqaUBKTNV-1">
          <mxGeometry x="350" y="-50" width="120" height="80" as="geometry" />
        </mxCell>
        <mxCell id="T3NiKNz-jwuX6jULTS1c-4" value="" style="edgeStyle=orthogonalEdgeStyle;rounded=0;orthogonalLoop=1;jettySize=auto;html=1;" edge="1" parent="WIyWlLk6GJQsqaUBKTNV-1" source="T3NiKNz-jwuX6jULTS1c-1" target="T3NiKNz-jwuX6jULTS1c-3">
          <mxGeometry relative="1" as="geometry" />
        </mxCell>
        <mxCell id="T3NiKNz-jwuX6jULTS1c-1" value="input num" style="shape=parallelogram;perimeter=parallelogramPerimeter;whiteSpace=wrap;html=1;fixedSize=1;" vertex="1" parent="WIyWlLk6GJQsqaUBKTNV-1">
          <mxGeometry x="350" y="120" width="120" height="60" as="geometry" />
        </mxCell>
        <mxCell id="T3NiKNz-jwuX6jULTS1c-6" value="TRUE" style="edgeStyle=orthogonalEdgeStyle;rounded=0;orthogonalLoop=1;jettySize=auto;html=1;" edge="1" parent="WIyWlLk6GJQsqaUBKTNV-1" source="T3NiKNz-jwuX6jULTS1c-3" target="T3NiKNz-jwuX6jULTS1c-5">
          <mxGeometry relative="1" as="geometry" />
        </mxCell>
        <mxCell id="T3NiKNz-jwuX6jULTS1c-8" value="FALSE" style="edgeStyle=orthogonalEdgeStyle;rounded=0;orthogonalLoop=1;jettySize=auto;html=1;entryX=0.5;entryY=0;entryDx=0;entryDy=0;" edge="1" parent="WIyWlLk6GJQsqaUBKTNV-1" source="T3NiKNz-jwuX6jULTS1c-3" target="T3NiKNz-jwuX6jULTS1c-7">
          <mxGeometry relative="1" as="geometry" />
        </mxCell>
        <mxCell id="T3NiKNz-jwuX6jULTS1c-3" value="num &amp;lt; 1?" style="rhombus;whiteSpace=wrap;html=1;" vertex="1" parent="WIyWlLk6GJQsqaUBKTNV-1">
          <mxGeometry x="370" y="250" width="80" height="80" as="geometry" />
        </mxCell>
        <mxCell id="T3NiKNz-jwuX6jULTS1c-36" style="edgeStyle=orthogonalEdgeStyle;rounded=0;orthogonalLoop=1;jettySize=auto;html=1;entryX=0;entryY=0;entryDx=0;entryDy=0;" edge="1" parent="WIyWlLk6GJQsqaUBKTNV-1" source="T3NiKNz-jwuX6jULTS1c-5" target="T3NiKNz-jwuX6jULTS1c-32">
          <mxGeometry relative="1" as="geometry">
            <Array as="points">
              <mxPoint x="248" y="400" />
            </Array>
          </mxGeometry>
        </mxCell>
        <mxCell id="T3NiKNz-jwuX6jULTS1c-5" value="Không phải số nguyên tố" style="whiteSpace=wrap;html=1;" vertex="1" parent="WIyWlLk6GJQsqaUBKTNV-1">
          <mxGeometry x="260" y="370" width="120" height="60" as="geometry" />
        </mxCell>
        <mxCell id="T3NiKNz-jwuX6jULTS1c-10" value="" style="edgeStyle=orthogonalEdgeStyle;rounded=0;orthogonalLoop=1;jettySize=auto;html=1;" edge="1" parent="WIyWlLk6GJQsqaUBKTNV-1" source="T3NiKNz-jwuX6jULTS1c-7" target="T3NiKNz-jwuX6jULTS1c-9">
          <mxGeometry relative="1" as="geometry" />
        </mxCell>
        <mxCell id="T3NiKNz-jwuX6jULTS1c-11" value="TRUE" style="edgeStyle=orthogonalEdgeStyle;rounded=0;orthogonalLoop=1;jettySize=auto;html=1;" edge="1" parent="WIyWlLk6GJQsqaUBKTNV-1" source="T3NiKNz-jwuX6jULTS1c-7" target="T3NiKNz-jwuX6jULTS1c-9">
          <mxGeometry relative="1" as="geometry" />
        </mxCell>
        <mxCell id="T3NiKNz-jwuX6jULTS1c-13" value="FALSE" style="edgeStyle=orthogonalEdgeStyle;rounded=0;orthogonalLoop=1;jettySize=auto;html=1;" edge="1" parent="WIyWlLk6GJQsqaUBKTNV-1" source="T3NiKNz-jwuX6jULTS1c-7" target="T3NiKNz-jwuX6jULTS1c-12">
          <mxGeometry relative="1" as="geometry" />
        </mxCell>
        <mxCell id="T3NiKNz-jwuX6jULTS1c-7" value="num &amp;lt;= 3" style="rhombus;whiteSpace=wrap;html=1;" vertex="1" parent="WIyWlLk6GJQsqaUBKTNV-1">
          <mxGeometry x="470" y="370" width="130" height="80" as="geometry" />
        </mxCell>
        <mxCell id="T3NiKNz-jwuX6jULTS1c-35" style="edgeStyle=orthogonalEdgeStyle;rounded=0;orthogonalLoop=1;jettySize=auto;html=1;" edge="1" parent="WIyWlLk6GJQsqaUBKTNV-1" source="T3NiKNz-jwuX6jULTS1c-9" target="T3NiKNz-jwuX6jULTS1c-32">
          <mxGeometry relative="1" as="geometry" />
        </mxCell>
        <mxCell id="T3NiKNz-jwuX6jULTS1c-9" value="num là số nguyên tố" style="whiteSpace=wrap;html=1;" vertex="1" parent="WIyWlLk6GJQsqaUBKTNV-1">
          <mxGeometry x="380" y="500" width="120" height="60" as="geometry" />
        </mxCell>
        <mxCell id="T3NiKNz-jwuX6jULTS1c-16" value="TRUE" style="edgeStyle=orthogonalEdgeStyle;rounded=0;orthogonalLoop=1;jettySize=auto;html=1;" edge="1" parent="WIyWlLk6GJQsqaUBKTNV-1" source="T3NiKNz-jwuX6jULTS1c-12" target="T3NiKNz-jwuX6jULTS1c-15">
          <mxGeometry relative="1" as="geometry" />
        </mxCell>
        <mxCell id="T3NiKNz-jwuX6jULTS1c-18" value="FALSE" style="edgeStyle=orthogonalEdgeStyle;rounded=0;orthogonalLoop=1;jettySize=auto;html=1;" edge="1" parent="WIyWlLk6GJQsqaUBKTNV-1" source="T3NiKNz-jwuX6jULTS1c-12" target="T3NiKNz-jwuX6jULTS1c-17">
          <mxGeometry relative="1" as="geometry" />
        </mxCell>
        <mxCell id="T3NiKNz-jwuX6jULTS1c-12" value="num % 2 == 0&lt;br&gt;hoặc num % 3 == 0" style="rhombus;whiteSpace=wrap;html=1;" vertex="1" parent="WIyWlLk6GJQsqaUBKTNV-1">
          <mxGeometry x="610" y="500" width="130" height="110" as="geometry" />
        </mxCell>
        <mxCell id="T3NiKNz-jwuX6jULTS1c-34" style="edgeStyle=orthogonalEdgeStyle;rounded=0;orthogonalLoop=1;jettySize=auto;html=1;entryX=1;entryY=0;entryDx=0;entryDy=0;" edge="1" parent="WIyWlLk6GJQsqaUBKTNV-1" source="T3NiKNz-jwuX6jULTS1c-15" target="T3NiKNz-jwuX6jULTS1c-32">
          <mxGeometry relative="1" as="geometry" />
        </mxCell>
        <mxCell id="T3NiKNz-jwuX6jULTS1c-15" value="Không phải số&lt;br&gt;nguyên tố" style="whiteSpace=wrap;html=1;" vertex="1" parent="WIyWlLk6GJQsqaUBKTNV-1">
          <mxGeometry x="490" y="660" width="120" height="60" as="geometry" />
        </mxCell>
        <mxCell id="T3NiKNz-jwuX6jULTS1c-20" value="" style="edgeStyle=orthogonalEdgeStyle;rounded=0;orthogonalLoop=1;jettySize=auto;html=1;" edge="1" parent="WIyWlLk6GJQsqaUBKTNV-1" source="T3NiKNz-jwuX6jULTS1c-17" target="T3NiKNz-jwuX6jULTS1c-19">
          <mxGeometry relative="1" as="geometry" />
        </mxCell>
        <mxCell id="T3NiKNz-jwuX6jULTS1c-17" value="num = 5" style="rhombus;whiteSpace=wrap;html=1;" vertex="1" parent="WIyWlLk6GJQsqaUBKTNV-1">
          <mxGeometry x="730" y="660" width="80" height="80" as="geometry" />
        </mxCell>
        <mxCell id="T3NiKNz-jwuX6jULTS1c-22" value="FALSE" style="edgeStyle=orthogonalEdgeStyle;rounded=0;orthogonalLoop=1;jettySize=auto;html=1;" edge="1" parent="WIyWlLk6GJQsqaUBKTNV-1" source="T3NiKNz-jwuX6jULTS1c-19" target="T3NiKNz-jwuX6jULTS1c-21">
          <mxGeometry relative="1" as="geometry" />
        </mxCell>
        <mxCell id="T3NiKNz-jwuX6jULTS1c-23" value="" style="edgeStyle=orthogonalEdgeStyle;rounded=0;orthogonalLoop=1;jettySize=auto;html=1;" edge="1" parent="WIyWlLk6GJQsqaUBKTNV-1" source="T3NiKNz-jwuX6jULTS1c-19" target="T3NiKNz-jwuX6jULTS1c-21">
          <mxGeometry relative="1" as="geometry" />
        </mxCell>
        <mxCell id="T3NiKNz-jwuX6jULTS1c-25" value="" style="edgeStyle=orthogonalEdgeStyle;rounded=0;orthogonalLoop=1;jettySize=auto;html=1;" edge="1" parent="WIyWlLk6GJQsqaUBKTNV-1" source="T3NiKNz-jwuX6jULTS1c-19" target="T3NiKNz-jwuX6jULTS1c-24">
          <mxGeometry relative="1" as="geometry" />
        </mxCell>
        <mxCell id="T3NiKNz-jwuX6jULTS1c-19" value="i * i &amp;lt;= n?" style="rhombus;whiteSpace=wrap;html=1;" vertex="1" parent="WIyWlLk6GJQsqaUBKTNV-1">
          <mxGeometry x="730" y="820" width="80" height="80" as="geometry" />
        </mxCell>
        <mxCell id="T3NiKNz-jwuX6jULTS1c-33" style="edgeStyle=orthogonalEdgeStyle;rounded=0;orthogonalLoop=1;jettySize=auto;html=1;entryX=1;entryY=0.5;entryDx=0;entryDy=0;" edge="1" parent="WIyWlLk6GJQsqaUBKTNV-1" source="T3NiKNz-jwuX6jULTS1c-21" target="T3NiKNz-jwuX6jULTS1c-32">
          <mxGeometry relative="1" as="geometry" />
        </mxCell>
        <mxCell id="T3NiKNz-jwuX6jULTS1c-21" value="num là số nguyên tố" style="whiteSpace=wrap;html=1;" vertex="1" parent="WIyWlLk6GJQsqaUBKTNV-1">
          <mxGeometry x="620" y="940" width="120" height="60" as="geometry" />
        </mxCell>
        <mxCell id="T3NiKNz-jwuX6jULTS1c-28" value="TRUE" style="edgeStyle=orthogonalEdgeStyle;rounded=0;orthogonalLoop=1;jettySize=auto;html=1;" edge="1" parent="WIyWlLk6GJQsqaUBKTNV-1" source="T3NiKNz-jwuX6jULTS1c-24" target="T3NiKNz-jwuX6jULTS1c-27">
          <mxGeometry relative="1" as="geometry">
            <Array as="points">
              <mxPoint x="960" y="880" />
            </Array>
          </mxGeometry>
        </mxCell>
        <mxCell id="T3NiKNz-jwuX6jULTS1c-30" value="FALSE" style="edgeStyle=orthogonalEdgeStyle;rounded=0;orthogonalLoop=1;jettySize=auto;html=1;" edge="1" parent="WIyWlLk6GJQsqaUBKTNV-1" source="T3NiKNz-jwuX6jULTS1c-24" target="T3NiKNz-jwuX6jULTS1c-29">
          <mxGeometry relative="1" as="geometry" />
        </mxCell>
        <mxCell id="T3NiKNz-jwuX6jULTS1c-24" value="num % i hoặc&lt;br&gt;chia hết cho i +2" style="rhombus;whiteSpace=wrap;html=1;" vertex="1" parent="WIyWlLk6GJQsqaUBKTNV-1">
          <mxGeometry x="827" y="940" width="133" height="80" as="geometry" />
        </mxCell>
        <mxCell id="T3NiKNz-jwuX6jULTS1c-37" style="edgeStyle=orthogonalEdgeStyle;rounded=0;orthogonalLoop=1;jettySize=auto;html=1;entryX=0.5;entryY=1;entryDx=0;entryDy=0;" edge="1" parent="WIyWlLk6GJQsqaUBKTNV-1" source="T3NiKNz-jwuX6jULTS1c-27" target="T3NiKNz-jwuX6jULTS1c-32">
          <mxGeometry relative="1" as="geometry">
            <Array as="points">
              <mxPoint x="1060" y="760" />
              <mxPoint x="610" y="760" />
              <mxPoint x="610" y="920" />
              <mxPoint x="290" y="920" />
            </Array>
          </mxGeometry>
        </mxCell>
        <mxCell id="T3NiKNz-jwuX6jULTS1c-27" value="không phải là&lt;br&gt;số nguyên tố" style="whiteSpace=wrap;html=1;" vertex="1" parent="WIyWlLk6GJQsqaUBKTNV-1">
          <mxGeometry x="1000" y="850" width="120" height="60" as="geometry" />
        </mxCell>
        <mxCell id="T3NiKNz-jwuX6jULTS1c-31" style="edgeStyle=orthogonalEdgeStyle;rounded=0;orthogonalLoop=1;jettySize=auto;html=1;exitX=0.5;exitY=1;exitDx=0;exitDy=0;entryX=1;entryY=1;entryDx=0;entryDy=0;" edge="1" parent="WIyWlLk6GJQsqaUBKTNV-1" source="T3NiKNz-jwuX6jULTS1c-29" target="T3NiKNz-jwuX6jULTS1c-19">
          <mxGeometry relative="1" as="geometry" />
        </mxCell>
        <mxCell id="T3NiKNz-jwuX6jULTS1c-29" value="i=i+6" style="whiteSpace=wrap;html=1;" vertex="1" parent="WIyWlLk6GJQsqaUBKTNV-1">
          <mxGeometry x="1000" y="1000" width="120" height="60" as="geometry" />
        </mxCell>
        <mxCell id="T3NiKNz-jwuX6jULTS1c-32" value="END" style="ellipse;whiteSpace=wrap;html=1;" vertex="1" parent="WIyWlLk6GJQsqaUBKTNV-1">
          <mxGeometry x="230" y="820" width="120" height="80" as="geometry" />
        </mxCell>
      </root>
    </mxGraphModel>
  </diagram>
</mxfile>
